{"title":"The Orphanage.2007.x264.AC3[5.1].Nordic+Eng_Sub.mkv","uid":5398881,"size":881436740,"categoryP":"video","categoryS":"movies","magnet":"?xt=urn:btih:1ee8d2fd4aaff21a981ecee0d36dc8586184a33d&amp;dn=The+Orphanage.2007.x264.AC3%5B5.1%5D.Nordic%2BEng_Sub.mkv&amp;tr=udp%3A%2F%2Ftracker.openbittorrent.com%3A80&amp;tr=udp%3A%2F%2Fopen.demonii.com%3A1337&amp;tr=udp%3A%2F%2Ftracker.coppersurfer.tk%3A6969&amp;tr=udp%3A%2F%2Fexodus.desync.com%3A6969","seeders":1,"leechers":0,"uploader":"Zen_Bud","files":-1,"time":1267348512,"description":"General\nComplete name                    : The Orphanage.mkv\nFormat                           : Matroska\nFile size                        : 841 MiB\nDuration                         : 1h 41mn\nOverall bit rate                 : 1 161 Kbps\n\nVideo\nID                               : 1\nFormat                           : AVC\nDuration                         : 1h 41mn\nBit rate                         : 754 Kbps\nWidth                            : 720 pixels\nHeight                           : 436 pixels\nDisplay aspect ratio             : 2.35:1\nFrame rate                       : 25.000 fps\nResolution                       : 8 bits\nColorimetry                      : 4:2:0\nScan type                        : Progressive\nBits/(Pixel*Frame)               : 0.096\nStream size                      : 546 MiB (65%)\nWriting library                  : x264 core 79\n\n\nAudio\nID                               : 2\nFormat                           : AC-3\nFormat/Info                      : Audio Coding 3\nCodec ID                         : A_AC3\nDuration                         : 1h 41mn\nBit rate mode                    : Constant\nBit rate                         : 384 Kbps\nChannel(s)                       : 6 channels\nChannel positions                : Front: L C R, Surround: L R, LFE\nSampling rate                    : 48.0 KHz\nStream size                      : 278 MiB (33%)\nLanguage                         : Spanish\n\nText #1\nLanguage                         : Finnish\n\nText #2\nLanguage                         : Danish\n\nText #3\nLanguage                         : Swedish\n\nText #4\nLanguage                         : Norwegian\n\nText #5\nLanguage                         : English\n\n","torrent":{"xt":"urn:btih:1ee8d2fd4aaff21a981ecee0d36dc8586184a33d","amp;dn":"The+Orphanage.2007.x264.AC3%5B5.1%5D.Nordic%2BEng_Sub.mkv","amp;tr":["udp%3A%2F%2Ftracker.openbittorrent.com%3A80","udp%3A%2F%2Fopen.demonii.com%3A1337","udp%3A%2F%2Ftracker.coppersurfer.tk%3A6969","udp%3A%2F%2Fexodus.desync.com%3A6969"],"infoHash":"1ee8d2fd4aaff21a981ecee0d36dc8586184a33d","infoHashBuffer":{"type":"Buffer","data":[30,232,210,253,74,175,242,26,152,30,206,224,211,109,200,88,97,132,163,61]},"announce":[],"urlList":[]}}